<svg xmlns="http://www.w3.org/2000/svg" version="1.1" xmlns:xlink="http://www.w3.org/1999/xlink" xmlns:svgjs="http://svgjs.dev/svgjs" width="1000" height="1000" viewBox="0 0 1000 1000"><rect width="1000" height="1000" fill="#6936f5"></rect><g transform="matrix(0.7,0,0,0.7,150.61876292677277,146.08680161943317)"><svg viewBox="0 0 244 247" data-background-color="#6936f5" preserveAspectRatio="xMidYMid meet" height="1012" width="1000" xmlns="http://www.w3.org/2000/svg" xmlns:xlink="http://www.w3.org/1999/xlink"><g id="tight-bounds" transform="matrix(1,0,0,1,-0.2156830773322156,-0.09999999999999432)"><svg viewBox="0 0 244.43135999999998 247.2" height="247.2" width="244.43135999999998"><g><svg></svg></g><g><svg viewBox="0 0 244.43135999999998 247.2" height="247.2" width="244.43135999999998"><g transform="matrix(1,0,0,1,0,54.42511841584158)"><svg viewBox="0 0 244.43135999999998 138.34976316831683" height="138.34976316831683" width="244.43135999999998"><g><svg viewBox="0 0 244.43135999999998 138.34976316831683" height="138.34976316831683" width="244.43135999999998"><g><svg viewBox="0 0 244.43135999999998 138.34976316831683" height="138.34976316831683" width="244.43135999999998"><g><svg viewBox="0 0 244.43135999999998 138.34976316831683" height="138.34976316831683" width="244.43135999999998"><g id="textblocktransform"><svg viewBox="0 0 244.43135999999998 138.34976316831683" height="138.34976316831683" width="244.43135999999998" id="textblock"><g><svg viewBox="0 0 244.43135999999998 138.34976316831683" height="138.34976316831683" width="244.43135999999998"><g transform="matrix(1,0,0,1,0,0)"><svg width="244.43135999999998" viewBox="3.75 -34.29999923706055 60.599998474121094 34.29999923706055" height="138.34976316831683" data-palette-color="#ffffff"><path d="M3.75 0L3.75-34.3 16.95-34.3Q25.05-34.3 29.45-30.05 33.85-25.8 33.85-17.15L33.85-17.15Q33.85-8.5 29.45-4.25 25.05 0 16.95 0L16.95 0 3.75 0ZM9.3-4.75L16.95-4.75Q22.4-4.75 25.28-7.68 28.15-10.6 28.15-16.85L28.15-16.85 28.15-17.4Q28.15-23.7 25.28-26.63 22.4-29.55 16.95-29.55L16.95-29.55 9.3-29.55 9.3-4.75ZM39.85 0L39.85-34.3 64.35-34.3 64.35-29.55 45.4-29.55 45.4-19.4 62.5-19.4 62.5-14.65 45.4-14.65 45.4 0 39.85 0Z" opacity="1" transform="matrix(1,0,0,1,0,0)" fill="#ffffff" class="wordmark-text-0" data-fill-palette-color="primary" id="text-0"></path></svg></g></svg></g></svg></g></svg></g><g></g></svg></g></svg></g></svg></g><path d="M0 48.425L0 1 244.431 1 244.431 48.425 231.955 48.425 231.955 13.477 12.477 13.477 12.477 48.425 0 48.425M0 198.775L0 246.2 244.431 246.2 244.431 198.775 231.955 198.775 231.955 233.723 12.477 233.723 12.477 198.775 0 198.775" fill="#ffffff" stroke="transparent" data-fill-palette-color="primary"></path></svg></g><defs></defs></svg><rect width="244.43135999999998" height="247.2" fill="none" stroke="none" visibility="hidden"></rect></g></svg></g></svg>