<svg width="1596" height="2361" viewBox="0 0 1596 2361" fill="none" xmlns="http://www.w3.org/2000/svg">
    <path fill-rule="evenodd" clip-rule="evenodd" d="M0.453125 1214.8V1466.64L63.7638 1607.33L72.9086 1481.41L77.8327 1466.64L187.57 1774.74L323.335 1885.89L277.611 1748.72L421.817 1893.63L589.94 2007.59L560.396 1821.88L547.733 1730.43L633.554 1937.94L865.69 2084.26L1099.94 2318.51L1002.86 2164.45L1203.34 2280.52L1264.54 2360.71L1234.3 2269.27L1038.03 2139.83L885.387 2056.12L679.11 1881.69L610.02 1755.31L786.957 1837.04L1028.77 2044.3L920.923 1809.23L720.395 1662.63L691.748 1335.71L685.85 1253.14L720.395 1141.08L610.863 1342.45L604.965 1450.3L658.537 1696.9L604.965 1671.8L532.555 1522.23V1378.67V1283.25L515.362 1174.94L505.907 1119.93L515.362 988.406L448.312 1039.12L388.998 1400.16L468.083 1618.51L497.31 1696.9L516.222 1885.89L416.506 1739.71L355.473 1361.48L379.542 1080.39L401.893 883.533L505.907 837.113L572.957 826.798L458.627 926.513L434.558 1014.19L579.834 914.479L567.799 1093.28L636.569 982.389L632.271 1070.93L588.43 1194.71L648.603 1126.8L691.748 1009.9L757.775 954.881L685.85 890.409L720.395 745.993L794.739 728.801L855.772 772.642L845.456 807.887L794.739 789.835L845.456 855.166L872.105 844.85V894.708L912.507 954.881L771.529 977.232L744.021 1052.02L845.456 1066.63L794.739 1088.12L744.021 1168.93L845.456 1159.47L855.772 1188.7L771.529 1335.71L757.775 1491.28L897.893 1696.9L1040.59 1872.1L1234.3 2103.33L1319.11 2289.87L1353.49 2360.71L1319.11 2239.15L1347.47 2089.58V2044.3L1334.58 1957.2L1319.11 1901.32L1300.2 1847.17L1334.58 1837.04L1385.3 1957.2L1393.89 1827.4L1347.47 1719.08L1326.84 1702.75H1389.6L1432.58 1676.96L1449.77 1702.75L1508.22 1639.14V1601.32L1526.28 1614.21L1537.45 1568.65L1516.82 1522.23L1578.71 1486.13V1306.47L1595.04 1253.14V1216.21L1572.69 1188.7L1455.79 1107.89L1358.65 1045.14L1354.35 948.005L1305.35 894.708L1378.42 914.479L1346.61 819.921L1305.35 772.642L1346.61 782.958L1331.14 745.993L1283.86 700.434L1247.76 671.208L1121.39 605.877L1021.68 645.42L1069.82 586.106L990.151 553.413L872.105 586.106V542.742L801.892 557.984L757.775 509.967L544.273 518.351L588.48 548.077L505.907 542.742L384.214 594.57L497.018 632.679L326.288 645.42L199.766 721.093L144.126 855.166L215.009 772.642L299.612 745.993L215.009 815.603L182.997 890.409L102.968 944.413L0.453125 1214.8ZM378.716 1824.16L487.812 1891.45C461.981 1856.84 409.246 1786.77 404.959 1783.34C400.672 1779.91 340.297 1698.31 310.646 1657.94L304.215 1636.51L277.422 1453.24L291.354 1313.91L310.646 1127.43L351.372 940.84L258.13 1038.29L238.839 1134.93L185.252 1418.95L224.906 1591.5L173.463 1477.89L127.998 1186.49L157.131 1025.23L268.151 940.84L364.601 868.748L414.471 814.25L558.368 718.38L674.839 709.298L585.628 679.53L634.16 632.787L755.574 649.757L871.629 709.298L907.96 769.849V799.115L880.712 784.986V828.381L970.529 840.491L994.749 729.482L907.96 671.958L1033.1 718.38L1048.24 756.729L1106.77 723.427L1138.05 748.656L1209.7 702.234L1092.64 636.637L970.529 671.958L1008.88 636.637L1022 608.381L940.253 626.545L880.712 618.472L826.216 567.004L805.023 608.381L761.629 567.004L674.839 543.793H621.353L705.115 618.472L509.334 608.381L576.949 654.804L491.169 662.876L431.627 683.059L318.6 718.38H414.471L384.196 748.656L245.939 868.748L157.131 953.519L92.5434 1038.29L33.002 1303.71L54.1952 1432.88L108.691 1255.26L92.5434 1438.94L238.875 1745.73L263.094 1650.86L378.716 1824.16ZM1162.66 784.986L1142.88 762.327H1263.23L1290.74 828.381L1162.66 784.986ZM1314.75 2089.39L1324.93 2036.06L1298.57 1933.6L1274.6 1825.74L1218.28 1734.67L1284.79 1798.18L1328.53 1772.42L1224.27 1629.81L1308.75 1689.13L1328.53 1638.8L1288.98 1626.21L1270.41 1593.86L1142.78 1626.21L1179.93 1701.71L1175.13 1815.56L1202.7 1891.66L1084.06 1726.28L991.175 1593.86L913.954 1390.04L941.753 1323.11L976.76 1433.28H1017.94L984.997 1473.43L1007.65 1533.15L1017.94 1497.12L1065.31 1462.11L1058.1 1515.65L1054.98 1540.94H1093.34L1084.06 1462.11L1032.42 1349.29L954.569 1286.66L901.776 1279.5L872.248 1224.02L845.404 1279.5L872.248 1401.19L922.356 1618.62L997.519 1746.58L1084.06 1849.48L1179.93 1953.28L1284.79 2059.76L1314.75 2089.39ZM1366.26 1584.86V1549.23L1476.35 1497.12L1503.71 1526.32L1492.9 1544.14L1503.71 1580.41H1481.44V1600.14H1466.17L1450.26 1568.32L1422.26 1610.32L1409.53 1562.59L1366.26 1584.86ZM1503.71 1423.09V1466.83L1520.27 1442.26L1533.45 1398.52L1516.68 1381.14L1520.27 1372.75L1516.68 1320.02C1501.78 1314.23 1470.82 1303.13 1466.17 1305.04C1461.51 1306.96 1379.66 1301.05 1339.31 1297.85L1328.53 1226.55L1350.7 1218.16L1354.29 1249.92L1380.06 1276.88L1383.65 1241.53L1409.53 1207.38L1429.19 1241.53L1528.06 1245.12L1554.53 1213.55L1328.53 1055.14L1122.29 828.381L1252.89 916.966L1258.79 885.791L1162.66 799.115L1074.27 762.327L1069.21 804.063L1010.23 769.849L970.529 879.893L959.681 906.012L920.081 871.468H880.712L954.569 940.557L941.753 996.166L805.493 1000.38L762.523 1034.08L920.081 1046.72L925.979 1082.11H861.102L809.706 1125.92L861.102 1113.28H954.569L994.749 1132.66L925.979 1146.98V1202.59L1017.94 1233.77L1043.94 1305.04L1156.84 1398.52L1219.19 1305.04L1270.58 1339.93L1290.74 1442.26L1383.65 1466.83L1466.17 1418.29L1476.35 1442.26L1492.9 1423.09H1503.71Z" fill="url(#paint0_linear_0_2597)"/>
    <path d="M1021.2 1017.66L1062.29 974.332H1172.85L1153.43 995.996L1229.63 1068.46L1220.67 1125.98L1115.33 1042.31L1091.42 1068.46L1048.84 1049.78L1021.2 1017.66Z" fill="url(#paint1_linear_0_2597)"/>
    <path d="M703.057 877.361L718.225 817.376L743.737 790.486L777.521 799.45C790.208 837.509 816.362 863.572 827.853 871.845V913.904L792.69 935.967L703.057 877.361Z" fill="url(#paint2_linear_0_2597)"/>
    <path d="M1232.49 1284.37L1245.5 1262.69L1296.99 1279.5L1278.02 1303.89L1232.49 1284.37Z" fill="url(#paint3_linear_0_2597)"/>
    <path d="M1240.08 1249.14L1257.97 1229.63L1269.35 1249.14H1240.08Z" fill="url(#paint4_linear_0_2597)"/>
    <path fill-rule="evenodd" clip-rule="evenodd" d="M170.207 295.162L364.836 570.677L501.331 508.328H524.08L487.007 481.366L803.804 478.583L821.946 511.435L926.388 496.725L916.091 540.855L992.092 505.551L1083.78 551.642L1149.49 295.688L1078.88 260.875L984.958 332.231C947.843 359.565 855.774 391.771 784.422 301.921C713.071 212.07 744.783 128.496 769.558 97.9403L803.804 63.2546L691.107 0.285156H628.148L515.688 66.1266C563.21 97.9403 625.464 192.798 524.08 312.02C498.29 342.347 456.792 369.341 383.496 356.655L297.033 260.243L170.207 295.162ZM579.687 67.668L660.573 19.6445C651.024 77.7805 649.62 210.904 685.007 289.261C715.339 344.027 771.609 396.371 795.382 411.432L751.582 435.574L336.947 438.097L246.291 334.286L352.327 390.947C372.55 403.617 470.53 417.749 542.131 371.114C592.627 338.225 606.292 292.409 614.52 264.822C615.702 260.858 616.772 257.27 617.823 254.152C625.455 211.484 628.513 114.451 579.687 67.668Z" fill="url(#paint5_linear_0_2597)"/>
    <defs>
        <linearGradient id="paint0_linear_0_2597" x1="716.036" y1="359.607" x2="1860.41" y2="1363.11" gradientUnits="userSpaceOnUse">
            <stop stop-color="#BA974D"/>
            <stop offset="0.486427" stop-color="#EFC980"/>
            <stop offset="1" stop-color="#BB984D"/>
        </linearGradient>
        <linearGradient id="paint1_linear_0_2597" x1="969.589" y1="748.776" x2="1285.56" y2="1120.81" gradientUnits="userSpaceOnUse">
            <stop stop-color="#EFC980"/>
            <stop offset="0.505208" stop-color="#EFC980"/>
            <stop offset="1" stop-color="#BA974D"/>
        </linearGradient>
        <linearGradient id="paint2_linear_0_2597" x1="969.589" y1="748.776" x2="1285.56" y2="1120.81" gradientUnits="userSpaceOnUse">
            <stop stop-color="#EFC980"/>
            <stop offset="0.505208" stop-color="#EFC980"/>
            <stop offset="1" stop-color="#BA974D"/>
        </linearGradient>
        <linearGradient id="paint3_linear_0_2597" x1="969.589" y1="748.776" x2="1285.56" y2="1120.81" gradientUnits="userSpaceOnUse">
            <stop stop-color="#EFC980"/>
            <stop offset="0.505208" stop-color="#EFC980"/>
            <stop offset="1" stop-color="#BA974D"/>
        </linearGradient>
        <linearGradient id="paint4_linear_0_2597" x1="969.589" y1="748.776" x2="1285.56" y2="1120.81" gradientUnits="userSpaceOnUse">
            <stop stop-color="#EFC980"/>
            <stop offset="0.505208" stop-color="#EFC980"/>
            <stop offset="1" stop-color="#BA974D"/>
        </linearGradient>
        <linearGradient id="paint5_linear_0_2597" x1="609.666" y1="-46.0551" x2="916.382" y2="489.891" gradientUnits="userSpaceOnUse">
            <stop stop-color="#BA974D"/>
            <stop offset="0.486427" stop-color="#EFC980"/>
            <stop offset="1" stop-color="#BB984D"/>
        </linearGradient>
    </defs>
</svg>
